Coordinates
version=1
nRows=22
nColumns=24
inDegrees=yes

Units are S.I. units (second, meters, Newtons, ...)
Angles are in degrees.

endheader
time	pelvis_tilt	pelvis_list	pelvis_rotation	pelvis_tx	pelvis_ty	pelvis_tz	hip_flexion_r	hip_adduction_r	hip_rotation_r	knee_angle_r	ankle_angle_r	subtalar_angle_r	mtp_angle_r	hip_flexion_l	hip_adduction_l	hip_rotation_l	knee_angle_l	ankle_angle_l	subtalar_angle_l	mtp_angle_l	lumbar_extension	lumbar_bending	lumbar_rotation
      5.07500000	     10.62033425	      8.20322768	     -0.03131659	      0.78151101	      0.75274354	     -0.30209605	     11.05782604	    -11.14518549	     -2.66577078	    -64.98992519	     18.55881176	     -7.61810702	      0.00000000	      0.25680876	     14.85891468	      2.82826658	    -17.74749736	     21.76406459	      0.85028319	      0.00000000	    -32.38405791	     -5.29955547	      0.10446079
      5.08000000	     10.59202200	      8.33569776	      0.46252875	      0.78782217	      0.75321295	     -0.30236713	     11.87784108	    -11.29720974	     -2.86781746	    -64.27164840	     19.09476912	     -7.17926493	      0.00000000	     -0.56506326	     14.95240355	      3.30819768	    -17.30392826	     22.04694220	      1.11710722	      0.00000000	    -32.44910827	     -5.22661325	     -0.53214637
      5.08500000	     10.58154640	      8.47835058	      0.97158461	      0.79414728	      0.75363962	     -0.30260521	     12.63467383	    -11.46924358	     -3.09089112	    -63.45921849	     19.56110853	     -6.78385807	      0.00000000	     -1.40763559	     15.03424194	      3.77174811	    -16.86817287	     22.33429322	      1.41377183	      0.00000000	    -32.53520950	     -5.17135520	     -1.17299793
      5.09000000	     10.58502322	      8.63365926	      1.47507821	      0.80050028	      0.75401052	     -0.30283081	     13.34023847	    -11.66920283	     -3.32801129	    -62.55972859	     19.96383529	     -6.47545428	      0.00000000	     -2.27020017	     15.11185514	      4.20770523	    -16.43287047	     22.63549101	      1.74753428	      0.00000000	    -32.63402586	     -5.12790433	     -1.81701444
      5.09500000	     10.60640330	      8.79473633	      1.98546265	      0.80685758	      0.75433351	     -0.30303232	     13.98729257	    -11.88445456	     -3.58069340	    -61.57559507	     20.29938150	     -6.23064325	      0.00000000	     -3.15347570	     15.17438139	      4.62437063	    -16.00224121	     22.94359979	      2.11032176	      0.00000000	    -32.75678287	     -5.09223265	     -2.46054642
      5.10000000	     10.64117641	      8.96799669	      2.49452110	      0.81322524	      0.75460125	     -0.30319816	     14.58221133	    -12.11988409	     -3.84490848	    -60.50925454	     20.57650585	     -6.07239374	      0.00000000	     -4.05226058	     15.22871369	      5.02165089	    -15.57538607	     23.25940321	      2.50260867	      0.00000000	    -32.89729170	     -5.07684762	     -3.09705188
      5.10500000	     10.72876721	      9.11009930	      3.00609440	      0.81960986	      0.75487603	     -0.30336484	     15.06349736	    -12.33317106	     -4.14372890	    -59.33345588	     20.78585765	     -5.90673850	      0.00000000	     -5.01102928	     15.23044783	      5.43146052	    -15.15172382	     23.59204968	      2.91253116	      0.00000000	    -33.09485544	     -5.01558989	     -3.72006084
      5.11000000	     10.79110152	      9.30361595	      3.50621503	      0.82599985	      0.75503545	     -0.30349064	     15.54921001	    -12.60388259	     -4.42388936	    -58.10161120	     20.94582093	     -5.88789134	      0.00000000	     -5.93483611	     15.26831552	      5.78046026	    -14.74402969	     23.92437044	      3.34207291	      0.00000000	    -33.27120882	     -5.02014979	     -4.34863327
      5.11500000	     10.87224672	      9.49125351	      4.00702488	      0.83240351	      0.75515335	     -0.30357030	     15.96591836	    -12.87270095	     -4.72792861	    -56.77854194	     21.06765226	     -5.89687365	      0.00000000	     -6.88009776	     15.27777310	      6.14305576	    -14.34024619	     24.26934716	      3.79490789	      0.00000000	    -33.47265940	     -5.02838856	     -4.95674686
      5.12000000	     10.95201639	      9.69413510	      4.49821117	      0.83880996	      0.75519981	     -0.30364332	     16.34752068	    -13.16228752	     -5.02595683	    -55.38076128	     21.14119393	     -5.94104368	      0.00000000	     -7.81632717	     15.29064456	      6.48186013	    -13.95348363	     24.61563686	      4.23993950	      0.00000000	    -33.67674896	     -5.05119203	     -5.56164248
      5.12500000	     11.03701225	      9.90654260	      4.98755582	      0.84522922	      0.75518518	     -0.30369794	     16.67792365	    -13.46665427	     -5.33472210	    -53.90355541	     21.18172522	     -5.99222705	      0.00000000	     -8.75438981	     15.29738023	      6.81755229	    -13.58009797	     24.96626008	      4.68319406	      0.00000000	    -33.89109097	     -5.08295876	     -6.15668864
      5.13000000	     11.07884260	     10.17510947	      5.45275301	      0.85164497	      0.75504029	     -0.30370611	     17.03710975	    -13.83245608	     -5.61132576	    -52.38198437	     21.19739128	     -6.08773330	      0.00000000	     -9.63324229	     15.35766617	      7.11358673	    -13.23664490	     25.28862096	      5.10236287	      0.00000000	    -34.06914817	     -5.19169750	     -6.76636553
      5.13500000	     11.20652670	     10.35456039	      5.93826862	      0.85810006	      0.75496110	     -0.30374491	     17.21028657	    -14.11250864	     -5.97589334	    -50.71765422	     21.17705949	     -6.01649716	      0.00000000	    -10.60958071	     15.29720795	      7.48490643	    -12.88640125	     25.67585770	      5.53585186	      0.00000000	    -34.33015522	     -5.17688213	     -7.32094352
      5.14000000	     11.28171185	     10.59867223	      6.40369883	      0.86454823	      0.75474275	     -0.30374497	     17.42286515	    -14.45968123	     -6.29695418	    -49.02081451	     21.13908628	     -5.94865912	      0.00000000	    -11.51897802	     15.30102152	      7.81459098	    -12.56228837	     26.02853030	      5.94254204	      0.00000000	    -34.54731784	     -5.24658779	     -7.88924999
      5.14500000	     11.35003594	     10.84704254	      6.86389141	      0.87100957	      0.75445679	     -0.30373590	     17.59636876	    -14.81577776	     -6.63176037	    -47.25381581	     21.08846124	     -5.78456939	      0.00000000	    -12.41291462	     15.29944069	      8.14696523	    -12.25941931	     26.38671556	      6.33404006	      0.00000000	    -34.75973291	     -5.31964289	     -8.44898107
      5.15000000	     11.40348535	     11.10688843	      7.31929950	      0.87748610	      0.75409768	     -0.30371016	     17.74072182	    -15.18541425	     -6.97021975	    -45.42401800	     21.02755817	     -5.51041320	      0.00000000	    -13.28327476	     15.30060767	      8.47750401	    -11.97916339	     26.74567274	      6.71228233	      0.00000000	    -34.96056218	     -5.40580217	     -8.99975566
      5.15500000	     11.45909472	     11.37046931	      7.75417345	      0.88400520	      0.75368032	     -0.30368808	     17.83851476	    -15.56789298	     -7.34088942	    -43.53481228	     20.97012649	     -5.08797526	      0.00000000	    -14.15860408	     15.29975110	      8.79020551	    -11.69757455	     27.09691013	      7.06652609	      0.00000000	    -35.15665844	     -5.49725904	     -9.53198210
      5.16000000	     11.47283294	     11.64652688	      8.20450815	      0.89049844	      0.75316875	     -0.30364098	     17.93726775	    -15.95699514	     -7.69240974	    -41.59689729	     20.90155083	     -4.54463348	      0.00000000	    -14.96055693	     15.30424833	      9.11892608	    -11.48312950	     27.46785375	      7.43471514	      0.00000000	    -35.32242744	     -5.60202929	    -10.08656986
      5.16500000	     11.45611007	     11.94127008	      8.65360229	      0.89703985	      0.75258197	     -0.30359321	     18.02631090	    -16.38136343	     -8.09513498	    -39.62592554	     20.79890559	     -3.87199494	      0.00000000	    -15.73520294	     15.32012546	      9.40344192	    -11.27007158	     27.81503997	      7.80904089	      0.00000000	    -35.45281226	     -5.73010956	    -10.64826937
      5.17000000	     11.46063051	     12.20808044	      9.08037473	      0.90363087	      0.75196433	     -0.30355954	     18.03748031	    -16.77279183	     -8.52208301	    -37.59311218	     20.76639494	     -2.91661892	      0.00000000	    -16.51982237	     15.30442724	      9.70170319	    -11.08388732	     28.19562737	      8.16101006	      0.00000000	    -35.58853303	     -5.82110505	    -11.15637344
      5.17500000	     11.43795283	     12.48543266	      9.49469283	      0.91024899	      0.75127484	     -0.30348573	     18.04605426	    -17.16887566	     -8.95002868	    -35.54603207	     20.72414630	     -1.81246515	      0.00000000	    -17.26842014	     15.29476320	      9.97491150	    -10.91501369	     28.56277804	      8.51002027	      0.00000000	    -35.69868370	     -5.94047369	    -11.65784616
      5.18000000	     11.41161114	     12.76810851	      9.89173874	      0.91691458	      0.75053411	     -0.30340912	     18.02061479	    -17.56477387	     -9.38530152	    -33.48541855	     20.72736253	     -0.50894065	      0.00000000	    -18.00989092	     15.28823522	     10.25594121	    -10.76278897	     28.93316529	      8.85704054	      0.00000000	    -35.79618162	     -6.06850350	    -12.11696066
